REM DIRINDEX 1\2,1\3,1\4,1\5
REM DIRNAME folder01,folder02,folder03,folder04,folder05
TITLE ""
FILE "Round-04-084-085.mp3" MP3
  TRACK 01 AUDIO
    TITLE "0:"
    INDEX 01 00:00:00
  TRACK 02 AUDIO
    TITLE "2:cjc093_0990"
    INDEX 01 00:00:03
  TRACK 03 AUDIO
    TITLE "0:"
    INDEX 01 00:01:01
  TRACK 04 AUDIO
    TITLE "3:cjc093_0991"
    INDEX 01 00:01:34
  TRACK 05 AUDIO
    TITLE "0:"
    INDEX 01 00:02:67
  TRACK 06 AUDIO
    TITLE "4:cjc093_0992"
    INDEX 01 00:03:14
  TRACK 07 AUDIO
    TITLE "0:"
    INDEX 01 00:05:34
  TRACK 08 AUDIO
    TITLE "2:cjc093_0993"
    INDEX 01 00:06:43
  TRACK 09 AUDIO
    TITLE "0:"
    INDEX 01 00:08:36
  TRACK 10 AUDIO
    TITLE "3:cjc093_0994"
    INDEX 01 00:09:10
  TRACK 11 AUDIO
    TITLE "0:"
    INDEX 01 00:12:30
  TRACK 12 AUDIO
    TITLE "4:cjc093_0995"
    INDEX 01 00:12:65
  TRACK 13 AUDIO
    TITLE "0:"
    INDEX 01 00:15:19
  TRACK 14 AUDIO
    TITLE "2:cjc093_0996"
    INDEX 01 00:16:32
  TRACK 15 AUDIO
    TITLE "0:"
    INDEX 01 00:17:41
  TRACK 16 AUDIO
    TITLE "3:cjc093_0997"
    INDEX 01 00:18:05
  TRACK 17 AUDIO
    TITLE "0:"
    INDEX 01 00:20:10
  TRACK 18 AUDIO
    TITLE "4:cjc093_0998"
    INDEX 01 00:20:36
  TRACK 19 AUDIO
    TITLE "0:"
    INDEX 01 00:22:25
  TRACK 20 AUDIO
    TITLE "3:cjc093_0999"
    INDEX 01 00:23:48
  TRACK 21 AUDIO
    TITLE "0:"
    INDEX 01 00:25:29
  TRACK 22 AUDIO
    TITLE "4:cjc093_1000"
    INDEX 01 00:25:56
  TRACK 23 AUDIO
    TITLE "0:"
    INDEX 01 00:28:45
  TRACK 24 AUDIO
    TITLE "2:cjc093_1001"
    INDEX 01 00:29:60
  TRACK 25 AUDIO
    TITLE "0:"
    INDEX 01 00:30:67
  TRACK 26 AUDIO
    TITLE "3:cjc093_1002"
    INDEX 01 00:31:45
  TRACK 27 AUDIO
    TITLE "0:"
    INDEX 01 00:33:26
  TRACK 28 AUDIO
    TITLE "4:cjc093_1003"
    INDEX 01 00:33:56
  TRACK 29 AUDIO
    TITLE "0:"
    INDEX 01 00:36:64
  TRACK 30 AUDIO
    TITLE "2:cjc093_1004"
    INDEX 01 00:38:02
  TRACK 31 AUDIO
    TITLE "0:"
    INDEX 01 00:38:65
  TRACK 32 AUDIO
    TITLE "3:cjc093_1005"
    INDEX 01 00:39:33
  TRACK 33 AUDIO
    TITLE "0:"
    INDEX 01 00:40:44
  TRACK 34 AUDIO
    TITLE "4:cjc093_1006"
    INDEX 01 00:40:68
  TRACK 35 AUDIO
    TITLE "0:"
    INDEX 01 00:43:39
  TRACK 36 AUDIO
    TITLE "3:cjc093_1007"
    INDEX 01 00:44:67
  TRACK 37 AUDIO
    TITLE "0:"
    INDEX 01 00:46:33
  TRACK 38 AUDIO
    TITLE "4:cjc093_1008"
    INDEX 01 00:46:70
  TRACK 39 AUDIO
    TITLE "0:"
    INDEX 01 00:50:15
  TRACK 40 AUDIO
    TITLE "3:cjc093_1009"
    INDEX 01 00:51:24
  TRACK 41 AUDIO
    TITLE "0:"
    INDEX 01 00:52:57
  TRACK 42 AUDIO
    TITLE "4:cjc093_1010"
    INDEX 01 00:53:04
  TRACK 43 AUDIO
    TITLE "0:"
    INDEX 01 00:55:57
  TRACK 44 AUDIO
    TITLE "2:cjc093_1011"
    INDEX 01 00:57:05
  TRACK 45 AUDIO
    TITLE "0:"
    INDEX 01 00:58:03
  TRACK 46 AUDIO
    TITLE "3:cjc093_1012"
    INDEX 01 00:58:44
  TRACK 47 AUDIO
    TITLE "0:"
    INDEX 01 01:00:02
  TRACK 48 AUDIO
    TITLE "4:cjc093_1013"
    INDEX 01 01:00:23
  TRACK 49 AUDIO
    TITLE "0:"
    INDEX 01 01:02:30
  TRACK 50 AUDIO
    TITLE "3:cjc093_1014"
    INDEX 01 01:03:51
  TRACK 51 AUDIO
    TITLE "0:"
    INDEX 01 01:05:52
  TRACK 52 AUDIO
    TITLE "4:cjc093_1015"
    INDEX 01 01:06:14
  TRACK 53 AUDIO
    TITLE "0:"
    INDEX 01 01:09:69
  TRACK 54 AUDIO
    TITLE "2:cjc093_1016"
    INDEX 01 01:10:73
  TRACK 55 AUDIO
    TITLE "0:"
    INDEX 01 01:12:01
  TRACK 56 AUDIO
    TITLE "3:cjc093_1017"
    INDEX 01 01:12:48
  TRACK 57 AUDIO
    TITLE "0:"
    INDEX 01 01:14:17
  TRACK 58 AUDIO
    TITLE "4:cjc093_1018"
    INDEX 01 01:14:39
  TRACK 59 AUDIO
    TITLE "0:"
    INDEX 01 01:18:19
  TRACK 60 AUDIO
    TITLE "2:cjc093_1019"
    INDEX 01 01:19:32
  TRACK 61 AUDIO
    TITLE "0:"
    INDEX 01 01:21:02
  TRACK 62 AUDIO
    TITLE "3:cjc093_1020"
    INDEX 01 01:21:39
  TRACK 63 AUDIO
    TITLE "0:"
    INDEX 01 01:22:70
  TRACK 64 AUDIO
    TITLE "4:cjc093_1021"
    INDEX 01 01:23:28
  TRACK 65 AUDIO
    TITLE "0:"
    INDEX 01 01:26:58
